<?xml version="1.0" encoding="utf-8"?>
<!-- Generator: Adobe Illustrator 18.0.0, SVG Export Plug-In . SVG Version: 6.00 Build 0)  -->
<!DOCTYPE svg PUBLIC "-//W3C//DTD SVG 1.1//EN" "http://www.w3.org/Graphics/SVG/1.1/DTD/svg11.dtd" [
	<!ENTITY st0 "fill:#66A585;">
	<!ENTITY st1 "opacity:0.1;clip-path:url(#SVGID_2_);fill:#231815;">
	<!ENTITY st2 "fill:#358BC6;">
	<!ENTITY st3 "fill:#68A8D4;">
	<!ENTITY st4 "opacity:0.5;fill:#231815;">
	<!ENTITY st5 "fill:none;stroke:#231815;stroke-miterlimit:10;">
	<!ENTITY st6 "fill:#FFFFFF;">
	<!ENTITY st7 "fill:none;stroke:#FFFFFF;stroke-miterlimit:10;">
	<!ENTITY st8 "opacity:0.9;fill:#68A8D4;">
]>
<svg version="1.1" id="圖層_1" xmlns="http://www.w3.org/2000/svg" xmlns:xlink="http://www.w3.org/1999/xlink" x="0px" y="0px"
	 viewBox="0 0 256 256" style="enable-background:new 0 0 256 256;" xml:space="preserve">
<g>
	<path style="&st0;" d="M42.7,62l70.8-40.9c9-5.2,20-5.2,29,0L213.3,62c9,5.2,14.5,14.7,14.5,25.1v81.7c0,10.4-5.5,19.9-14.5,25.1
		l-70.8,40.9c-9,5.2-20,5.2-29,0L42.7,194c-9-5.2-14.5-14.7-14.5-25.1V87.1C28.2,76.8,33.8,67.2,42.7,62z"/>
	<g>
		<defs>
			<path id="SVGID_1_" d="M42.7,62l70.8-40.9c9-5.2,20-5.2,29,0L213.3,62c9,5.2,14.5,14.7,14.5,25.1v81.7c0,10.4-5.5,19.9-14.5,25.1
				l-70.8,40.9c-9,5.2-20,5.2-29,0L42.7,194c-9-5.2-14.5-14.7-14.5-25.1V87.1C28.2,76.8,33.8,67.2,42.7,62z"/>
		</defs>
		<clipPath id="SVGID_2_">
			<use xlink:href="#SVGID_1_"  style="overflow:visible;"/>
		</clipPath>
		<polygon style="&st1;" points="116.4,39.5 236.4,138.8 232.7,196.7 168,228.5 89.3,76.2 		"/>
	</g>
	<g>
		<polygon style="&st2;" points="161.4,174.3 121.9,187.2 85.6,75.5 117.3,38.5 		"/>
		<polygon style="&st3;" points="85.7,75.7 93.6,66.2 130.5,179.6 120.5,182.8 		"/>
		<polygon style="&st4;" points="137.9,102.2 107.6,143.1 119.3,179.1 161.4,174.3 		"/>
		
			<rect x="133.8" y="190.1" transform="matrix(0.309 0.9511 -0.9511 0.309 292.3682 -8.9398)" style="&st2;" width="37" height="13.2"/>
		<path style="&st5;" d="M164.9,171.3"/>
		<polygon style="&st2;" points="163.1,186.7 165.9,181.1 153.6,143.2 145.7,150.7 151.4,168.1 147.8,175.2 116.4,179.6 
			120.5,191.9 		"/>
		<polygon style="&st3;" points="147.8,175.2 154.9,187.7 163.1,186.7 165.9,181.1 162.1,169.3 151.4,168.1 		"/>
		<polygon style="&st6;" points="89.3,73.5 93.3,68.9 102.9,96.5 92.6,72.6 		"/>
		<g>
			<circle style="&st7;" cx="157.7" cy="177.8" r="4"/>
			<circle style="&st8;" cx="157.7" cy="177.8" r="4"/>
			<path style="&st4;" d="M160.4,174.9c0.1,0.2,0.2,0.3,0.2,0.5c0.7,2.1-0.5,4.4-2.6,5c-1.4,0.5-2.9,0.1-4-0.9
				c0.9,1.8,2.9,2.7,4.8,2.1c2.1-0.7,3.3-2.9,2.6-5C161.3,175.9,160.9,175.4,160.4,174.9z"/>
			<circle style="&st6;" cx="155.4" cy="176.3" r="0.6"/>
			<circle style="&st6;" cx="155.1" cy="177.4" r="0.3"/>
		</g>
		<polygon style="&st4;" points="147.8,175.2 151.4,186.1 135.4,190.1 154.9,187.7 		"/>
		<polygon style="&st4;" points="159.2,160.3 162.1,169.3 154.2,168.4 160.1,167.6 		"/>
		<polygon style="&st6;" points="120.6,188.8 118.1,181.1 123.9,180.5 119.9,182.5 		"/>
		<polygon style="&st6;" points="150.5,161.3 147.6,152.4 150.5,148.3 149.1,152.8 		"/>
		<polygon style="&st4;" points="142.9,189.2 156.3,187.5 159.6,197.6 145.2,196.1 		"/>
	</g>
	<g>
		<path style="&st6;" d="M94.6,81.2c-8,0.6-8.4,1-9,9c-0.6-8-1-8.4-9-9c8-0.6,8.4-1,9-9C86.2,80.2,86.6,80.6,94.6,81.2z"/>
	</g>
	<g>
		<path style="&st6;" d="M100,89.5c-5.3,0.4-5.6,0.7-6,6c-0.4-5.3-0.7-5.6-6-6c5.3-0.4,5.6-0.7,6-6C94.3,88.8,94.6,89.1,100,89.5z"
			/>
	</g>
</g>
</svg>
